<?xml version="1.0" standalone="no"?>
<!DOCTYPE svg PUBLIC "-//W3C//DTD SVG 20010904//EN"
 "http://www.w3.org/TR/2001/REC-SVG-20010904/DTD/svg10.dtd">
<svg version="1.0" xmlns="http://www.w3.org/2000/svg"
 width="16.000000pt" height="16.000000pt" viewBox="0 0 16.000000 16.000000"
 preserveAspectRatio="xMidYMid meet">
<g transform="translate(0.000000,16.000000) scale(0.100000,-0.100000)"
fill="#000000" stroke="none">
<path d="M20 120 c0 -13 5 -20 13 -18 6 2 12 10 12 18 0 8 -6 16 -12 18 -8 2
-13 -5 -13 -18z"/>
<path d="M50 120 c0 -13 5 -20 13 -18 6 2 12 10 12 18 0 8 -6 16 -12 18 -8 2
-13 -5 -13 -18z"/>
<path d="M80 120 c0 -13 5 -20 13 -18 6 2 12 10 12 18 0 8 -6 16 -12 18 -8 2
-13 -5 -13 -18z"/>
<path d="M110 120 c0 -13 5 -20 13 -18 6 2 12 10 12 18 0 8 -6 16 -12 18 -8
2 -13 -5 -13 -18z"/>
<path d="M20 80 c0 -13 5 -20 13 -18 6 2 12 10 12 18 0 8 -6 16 -12 18 -8 2
-13 -5 -13 -18z"/>
<path d="M80 80 c0 -13 5 -20 13 -18 6 2 12 10 12 18 0 8 -6 16 -12 18 -8 2
-13 -5 -13 -18z"/>
<path d="M20 40 c0 -13 5 -20 13 -18 6 2 12 10 12 18 0 8 -6 16 -12 18 -8 2
-13 -5 -13 -18z"/>
<path d="M50 40 c0 -13 5 -20 13 -18 6 2 12 10 12 18 0 8 -6 16 -12 18 -8 2
-13 -5 -13 -18z"/>
<path d="M80 40 c0 -13 5 -20 13 -18 6 2 12 10 12 18 0 8 -6 16 -12 18 -8 2
-13 -5 -13 -18z"/>
<path d="M110 40 c0 -13 5 -20 13 -18 6 2 12 10 12 18 0 8 -6 16 -12 18 -8 2
-13 -5 -13 -18z"/>
</g>
</svg>
